<svg id="Layer_1" data-name="Layer 1" xmlns="http://www.w3.org/2000/svg" xmlns:xlink="http://www.w3.org/1999/xlink" viewBox="0 0 800 228.16"><defs><style>.cls-1{opacity:0.39;fill:url(#linear-gradient);}.cls-2{opacity:0.52;fill:url(#linear-gradient-2);}.cls-3{fill:url(#linear-gradient-3);}</style><linearGradient id="linear-gradient" y1="374.58" x2="800" y2="374.58" gradientUnits="userSpaceOnUse"><stop offset="0.13" stop-color="#912d6d"/><stop offset="0.61" stop-color="#bc3b44"/><stop offset="1" stop-color="#db4428"/></linearGradient><linearGradient id="linear-gradient-2" x1="648" y1="115" x2="173.5" y2="589.5" gradientUnits="userSpaceOnUse"><stop offset="0.13" stop-color="#912d6d"/><stop offset="0.39" stop-color="#bc3b44"/><stop offset="0.6" stop-color="#db4428"/><stop offset="0.68" stop-color="#df5e26"/><stop offset="0.9" stop-color="#e89f21"/><stop offset="1" stop-color="#ebb81f"/></linearGradient><linearGradient id="linear-gradient-3" x1="530" y1="455" x2="530" y2="455" xlink:href="#linear-gradient"/></defs><title>background</title><path class="cls-1" d="M0,267H800V462.37c-3.83,1.29-7.54,2.38-11.12,3.3-20.15,5.16-36.22,4.87-47.88,3.33-15.82-2.09-24.56-6.62-44-8a150.15,150.15,0,0,0-42,3c-8.27,1.72-19.17,3.85-32,6,0,0-31.64,5.3-62,8-41.47,3.69-73.69,6.66-113,1a368.39,368.39,0,0,1-61.3-14.52A469.44,469.44,0,0,1,317,435c-19.43-10-25.42-14.85-44-22,0,0-41.48-16-92-17C95.41,394.24,19,437.91,0,449.23Z" transform="translate(0 -267)"/><path class="cls-2" d="M800,267V459q-5.65,3.6-11.12,6.67A241.67,241.67,0,0,1,742,486c-17.74,5.54-32.33,10.09-52,9a201.32,201.32,0,0,1-37-6s-21.88-5.7-37-6.3c-4.24-.16-7.14-.12-12,.1-12.07.55-20.91,2.49-49,4.44-9.6.66-75.17,5.22-109.57.94-24.21-3-42.8-12.08-58.73-23.7-25.17-18.36-43.7-43.07-67.26-60.3A120.5,120.5,0,0,0,306,395.6c-24.51-13.35-64.13-23.45-114.59-23.23C138.06,372.59,72.59,384.35,0,416V267Z" transform="translate(0 -267)"/><path class="cls-3" d="M530,455Z" transform="translate(0 -267)"/></svg>