<svg id="Layer_1" data-name="Layer 1" xmlns="http://www.w3.org/2000/svg" xmlns:xlink="http://www.w3.org/1999/xlink" viewBox="0 0 800 479.37"><defs><style>.cls-1{opacity:0.39;fill:url(#linear-gradient);}.cls-2{opacity:0.52;fill:url(#linear-gradient-2);}.cls-3{fill:url(#linear-gradient-3);}.cls-4{fill:url(#linear-gradient-4);}</style><linearGradient id="linear-gradient" y1="-6.99" x2="800" y2="-6.99" gradientTransform="matrix(1, 0, 0, -1, 0, 548.32)" gradientUnits="userSpaceOnUse"><stop offset="0.13" stop-color="#912d6d"/><stop offset="0.61" stop-color="#bc3b44"/><stop offset="1" stop-color="#db4428"/></linearGradient><linearGradient id="linear-gradient-2" x1="710" y1="-341.68" x2="102" y2="266.32" gradientTransform="matrix(1, 0, 0, -1, 0, 548.32)" gradientUnits="userSpaceOnUse"><stop offset="0.13" stop-color="#912d6d"/><stop offset="0.39" stop-color="#bc3b44"/><stop offset="0.6" stop-color="#db4428"/><stop offset="0.68" stop-color="#df5e26"/><stop offset="0.9" stop-color="#e89f21"/><stop offset="1" stop-color="#ebb81f"/></linearGradient><linearGradient id="linear-gradient-3" x1="530" y1="455" x2="530" y2="455" gradientTransform="matrix(1, 0, 0, 1, 0, 0)" xlink:href="#linear-gradient"/><linearGradient id="linear-gradient-4" x1="459" y1="298" x2="459" y2="298" gradientTransform="matrix(1, 0, 0, 1, 0, 0)" xlink:href="#linear-gradient-2"/></defs><title>footer</title><path class="cls-1" d="M775,780.59l25-3.39V342a376.48,376.48,0,0,0-100-20c-28.59-1.75-56.72-3.47-90,6-52.64,15-51.92,39.11-101,54-36.75,11.15-68.14,7-114,1-46.24-6.07-54-14.16-108-24-18.34-3.35-66.58-12.14-106-11-31.32.91-99.8,9.32-181,77V790Z" transform="translate(0 -320.63)"/><path class="cls-2" d="M800,800V360a488.38,488.38,0,0,0-82-18c-40.69-5.32-73.68-3.62-138,0-61.89,3.48-92.83,5.22-130,12-46.06,8.4-65.18,16.6-111,19-22.38,1.17-39.22.13-72-2-90.78-5.9-106.78-15.19-150-14-27.17.75-67.55,5.71-117,27V800Z" transform="translate(0 -320.63)"/><path class="cls-3" d="M530,455" transform="translate(0 -320.63)"/><path class="cls-4" d="M459,298" transform="translate(0 -320.63)"/></svg>