<svg id="Layer_1" data-name="Layer 1" xmlns="http://www.w3.org/2000/svg" viewBox="0 0 470.06 516.52"><defs><style>.cls-1{opacity:0.53;}.cls-2{fill:#fff;}</style></defs><title>stars</title><g class="cls-1"><path class="cls-2" d="M114.52,512.4a1.25,1.25,0,0,0,0-2.5,1.25,1.25,0,0,0,0,2.5Z" transform="translate(-39.71 -257.05)"/></g><g class="cls-1"><path class="cls-2" d="M152.5,511.21a1.25,1.25,0,0,0,0-2.5,1.25,1.25,0,0,0,0,2.5Z" transform="translate(-39.71 -257.05)"/></g><g class="cls-1"><path class="cls-2" d="M132.32,454.25a1.25,1.25,0,0,0,0-2.5,1.25,1.25,0,0,0,0,2.5Z" transform="translate(-39.71 -257.05)"/></g><g class="cls-1"><path class="cls-2" d="M52.81,505.28a1.25,1.25,0,0,0,0-2.5,1.25,1.25,0,0,0,0,2.5Z" transform="translate(-39.71 -257.05)"/></g><g class="cls-1"><path class="cls-2" d="M65.86,563.43a1.25,1.25,0,0,0,0-2.5,1.25,1.25,0,0,0,0,2.5Z" transform="translate(-39.71 -257.05)"/></g><g class="cls-1"><path class="cls-2" d="M116.89,575.3a1.25,1.25,0,0,0,0-2.5,1.25,1.25,0,0,0,0,2.5Z" transform="translate(-39.71 -257.05)"/></g><g class="cls-1"><path class="cls-2" d="M126.39,605a1.25,1.25,0,0,0,0-2.5,1.25,1.25,0,0,0,0,2.5Z" transform="translate(-39.71 -257.05)"/></g><g class="cls-1"><path class="cls-2" d="M59.93,631.08a1.25,1.25,0,0,0,0-2.5,1.25,1.25,0,0,0,0,2.5Z" transform="translate(-39.71 -257.05)"/></g><g class="cls-1"><path class="cls-2" d="M151.31,709.41a1.25,1.25,0,0,0,0-2.5,1.25,1.25,0,0,0,0,2.5Z" transform="translate(-39.71 -257.05)"/></g><g class="cls-1"><path class="cls-2" d="M181,656a1.25,1.25,0,0,0,0-2.5,1.25,1.25,0,0,0,0,2.5Z" transform="translate(-39.71 -257.05)"/></g><g class="cls-1"><path class="cls-2" d="M240.32,685.68a1.25,1.25,0,0,0,0-2.5,1.25,1.25,0,0,0,0,2.5Z" transform="translate(-39.71 -257.05)"/></g><g class="cls-1"><path class="cls-2" d="M198.78,575.3a1.25,1.25,0,0,0,0-2.5,1.25,1.25,0,0,0,0,2.5Z" transform="translate(-39.71 -257.05)"/></g><g class="cls-1"><path class="cls-2" d="M170.3,599a1.25,1.25,0,0,0,0-2.5,1.25,1.25,0,0,0,0,2.5Z" transform="translate(-39.71 -257.05)"/></g><g class="cls-1"><path class="cls-2" d="M99.09,678.55a1.25,1.25,0,0,0,0-2.5,1.25,1.25,0,0,0,0,2.5Z" transform="translate(-39.71 -257.05)"/></g><g class="cls-1"><path class="cls-2" d="M341.2,296.4a1.25,1.25,0,0,0,0-2.5,1.25,1.25,0,0,0,0,2.5Z" transform="translate(-39.71 -257.05)"/></g><g class="cls-1"><path class="cls-2" d="M316.28,327.26a1.25,1.25,0,0,0,0-2.5,1.25,1.25,0,0,0,0,2.5Z" transform="translate(-39.71 -257.05)"/></g><g class="cls-1"><path class="cls-2" d="M325.77,367.61a1.25,1.25,0,0,0,0-2.5,1.25,1.25,0,0,0,0,2.5Z" transform="translate(-39.71 -257.05)"/></g><g class="cls-1"><path class="cls-2" d="M375.62,345.06a1.25,1.25,0,0,0,0-2.5,1.25,1.25,0,0,0,0,2.5Z" transform="translate(-39.71 -257.05)"/></g><g class="cls-1"><path class="cls-2" d="M376.81,314.2a1.25,1.25,0,0,0,0-2.5,1.25,1.25,0,0,0,0,2.5Z" transform="translate(-39.71 -257.05)"/></g><g class="cls-1"><path class="cls-2" d="M417.16,300a1.25,1.25,0,0,0,0-2.5,1.25,1.25,0,0,0,0,2.5Z" transform="translate(-39.71 -257.05)"/></g><g class="cls-1"><path class="cls-2" d="M468.19,321.32a1.25,1.25,0,0,0,0-2.5,1.25,1.25,0,0,0,0,2.5Z" transform="translate(-39.71 -257.05)"/></g><g class="cls-1"><path class="cls-2" d="M439.71,355.74a1.25,1.25,0,0,0,0-2.5,1.25,1.25,0,0,0,0,2.5Z" transform="translate(-39.71 -257.05)"/></g><g class="cls-1"><path class="cls-2" d="M382.74,392.53a1.25,1.25,0,0,0,0-2.5,1.25,1.25,0,0,0,0,2.5Z" transform="translate(-39.71 -257.05)"/></g><g class="cls-1"><path class="cls-2" d="M283.05,403.21a1.25,1.25,0,0,0,0-2.5,1.25,1.25,0,0,0,0,2.5Z" transform="translate(-39.71 -257.05)"/></g><g class="cls-1"><path class="cls-2" d="M290.17,373.54a1.25,1.25,0,0,0,0-2.5,1.25,1.25,0,0,0,0,2.5Z" transform="translate(-39.71 -257.05)"/></g><g class="cls-1"><path class="cls-2" d="M145.38,556.31a1.25,1.25,0,0,0,0-2.5,1.25,1.25,0,0,0,0,2.5Z" transform="translate(-39.71 -257.05)"/></g><g class="cls-1"><path class="cls-2" d="M182.17,543.26a1.25,1.25,0,0,0,0-2.5,1.25,1.25,0,0,0,0,2.5Z" transform="translate(-39.71 -257.05)"/></g><g class="cls-1"><path class="cls-2" d="M43.31,631.08a1.25,1.25,0,0,0,0-2.5,1.25,1.25,0,0,0,0,2.5Z" transform="translate(-39.71 -257.05)"/></g><g class="cls-1"><path class="cls-2" d="M185.73,434.07a1.25,1.25,0,0,0,0-2.5,1.25,1.25,0,0,0,0,2.5Z" transform="translate(-39.71 -257.05)"/></g><g class="cls-1"><path class="cls-2" d="M141.82,475.61a1.25,1.25,0,0,0,0-2.5,1.25,1.25,0,0,0,0,2.5Z" transform="translate(-39.71 -257.05)"/></g><g class="cls-1"><path class="cls-2" d="M200,460.18a1.25,1.25,0,0,0,0-2.5,1.25,1.25,0,0,0,0,2.5Z" transform="translate(-39.71 -257.05)"/></g><g class="cls-1"><path class="cls-2" d="M183.35,570.55a1.25,1.25,0,0,0,0-2.5,1.25,1.25,0,0,0,0,2.5Z" transform="translate(-39.71 -257.05)"/></g><g class="cls-1"><path class="cls-2" d="M183.35,514.77a1.25,1.25,0,0,0,0-2.5,1.25,1.25,0,0,0,0,2.5Z" transform="translate(-39.71 -257.05)"/></g><g class="cls-1"><path class="cls-2" d="M166.74,482.73a1.25,1.25,0,0,0,0-2.5,1.25,1.25,0,0,0,0,2.5Z" transform="translate(-39.71 -257.05)"/></g><g class="cls-1"><path class="cls-2" d="M145.38,548a1.25,1.25,0,0,0,0-2.5,1.25,1.25,0,0,0,0,2.5Z" transform="translate(-39.71 -257.05)"/></g><g class="cls-1"><path class="cls-2" d="M102.65,520.71a1.25,1.25,0,0,0,0-2.5,1.25,1.25,0,0,0,0,2.5Z" transform="translate(-39.71 -257.05)"/></g><g class="cls-1"><path class="cls-2" d="M130,498.16a1.25,1.25,0,0,0,0-2.5,1.25,1.25,0,0,0,0,2.5Z" transform="translate(-39.71 -257.05)"/></g><g class="cls-1"><path class="cls-2" d="M122.83,552.75a1.25,1.25,0,0,0,0-2.5,1.25,1.25,0,0,0,0,2.5Z" transform="translate(-39.71 -257.05)"/></g><g class="cls-1"><path class="cls-2" d="M230.83,432.88a1.25,1.25,0,0,0,0-2.5,1.25,1.25,0,0,0,0,2.5Z" transform="translate(-39.71 -257.05)"/></g><g class="cls-1"><path class="cls-2" d="M116.89,732a1.25,1.25,0,0,0,0-2.5,1.25,1.25,0,0,0,0,2.5Z" transform="translate(-39.71 -257.05)"/></g><g class="cls-1"><path class="cls-2" d="M99.09,703.54c3.22,0,3.22-5,0-5s-3.22,5,0,5Z" transform="translate(-39.71 -257.05)"/></g><g class="cls-1"><path class="cls-2" d="M87.22,630c3.22,0,3.23-5,0-5s-3.22,5,0,5Z" transform="translate(-39.71 -257.05)"/></g><g class="cls-1"><path class="cls-2" d="M56.37,603.85c3.21,0,3.22-5,0-5s-3.23,5,0,5Z" transform="translate(-39.71 -257.05)"/></g><g class="cls-1"><path class="cls-2" d="M88.41,550.44c3.22,0,3.22-5,0-5s-3.22,5,0,5Z" transform="translate(-39.71 -257.05)"/></g><g class="cls-1"><path class="cls-2" d="M42.12,548.07c3.22,0,3.23-5,0-5s-3.22,5,0,5Z" transform="translate(-39.71 -257.05)"/></g><g class="cls-1"><path class="cls-2" d="M458.7,303.58c3.21,0,3.22-5,0-5s-3.23,5,0,5Z" transform="translate(-39.71 -257.05)"/></g><g class="cls-1"><path class="cls-2" d="M442.08,329.69c3.22,0,3.22-5,0-5s-3.22,5,0,5Z" transform="translate(-39.71 -257.05)"/></g><g class="cls-1"><path class="cls-2" d="M385.11,288.16c3.22,0,3.23-5,0-5s-3.22,5,0,5Z" transform="translate(-39.71 -257.05)"/></g><g class="cls-1"><path class="cls-2" d="M183.35,733.21c3.22,0,3.23-5,0-5s-3.22,5,0,5Z" transform="translate(-39.71 -257.05)"/></g><g class="cls-1"><path class="cls-2" d="M150.12,662c3.22,0,3.23-5,0-5s-3.22,5,0,5Z" transform="translate(-39.71 -257.05)"/></g><g class="cls-1"><path class="cls-2" d="M359,262.05c3.22,0,3.23-5,0-5s-3.22,5,0,5Z" transform="translate(-39.71 -257.05)"/></g><g class="cls-1"><path class="cls-2" d="M507.35,354.62c3.22,0,3.23-5,0-5s-3.22,5,0,5Z" transform="translate(-39.71 -257.05)"/></g><g class="cls-1"><path class="cls-2" d="M476.5,357c3.21,0,3.22-5,0-5s-3.23,5,0,5Z" transform="translate(-39.71 -257.05)"/></g><g class="cls-1"><path class="cls-2" d="M201.16,773.56c3.21,0,3.22-5,0-5s-3.23,5,0,5Z" transform="translate(-39.71 -257.05)"/></g><g class="cls-1"><path class="cls-2" d="M162,762.88c3.22,0,3.22-5,0-5s-3.22,5,0,5Z" transform="translate(-39.71 -257.05)"/></g><g class="cls-1"><path class="cls-2" d="M65.86,470.93c3.22,0,3.22-5,0-5s-3.22,5,0,5Z" transform="translate(-39.71 -257.05)"/></g></svg>